<mxfile host="app.diagrams.net" agent="Mozilla/5.0 (Windows NT 10.0; Win64; x64) AppleWebKit/537.36 (KHTML, like Gecko) Chrome/134.0.0.0 Safari/537.36" version="26.1.1">
  <diagram name="Страница — 1" id="g2PvD3-NV8LtlF_c9lBG">
    <mxGraphModel dx="890" dy="964" grid="1" gridSize="10" guides="1" tooltips="1" connect="1" arrows="1" fold="1" page="1" pageScale="1" pageWidth="827" pageHeight="1169" math="0" shadow="0">
      <root>
        <mxCell id="0" />
        <mxCell id="1" parent="0" />
        <mxCell id="E3kmAj0gttxFbAQWqcGt-1" value="Клиент" style="shape=umlActor;verticalLabelPosition=bottom;verticalAlign=top;html=1;" vertex="1" parent="1">
          <mxGeometry x="650" y="320" width="30" height="60" as="geometry" />
        </mxCell>
        <mxCell id="E3kmAj0gttxFbAQWqcGt-2" value="Операционист" style="shape=umlActor;verticalLabelPosition=bottom;verticalAlign=top;html=1;" vertex="1" parent="1">
          <mxGeometry x="180" y="210" width="30" height="60" as="geometry" />
        </mxCell>
        <mxCell id="E3kmAj0gttxFbAQWqcGt-3" value="Кассир" style="shape=umlActor;verticalLabelPosition=bottom;verticalAlign=top;html=1;" vertex="1" parent="1">
          <mxGeometry x="290" y="210" width="30" height="60" as="geometry" />
        </mxCell>
        <mxCell id="E3kmAj0gttxFbAQWqcGt-10" value="Открыть счет" style="ellipse;whiteSpace=wrap;html=1;" vertex="1" parent="1">
          <mxGeometry x="420" y="420" width="140" height="70" as="geometry" />
        </mxCell>
        <mxCell id="E3kmAj0gttxFbAQWqcGt-16" value="Закрыть счет" style="ellipse;whiteSpace=wrap;html=1;" vertex="1" parent="1">
          <mxGeometry x="420" y="80" width="140" height="70" as="geometry" />
        </mxCell>
        <mxCell id="E3kmAj0gttxFbAQWqcGt-20" value="Положить деньги на счет" style="ellipse;whiteSpace=wrap;html=1;" vertex="1" parent="1">
          <mxGeometry x="420" y="290" width="140" height="70" as="geometry" />
        </mxCell>
        <mxCell id="E3kmAj0gttxFbAQWqcGt-21" value="Снять деньги со счета" style="ellipse;whiteSpace=wrap;html=1;" vertex="1" parent="1">
          <mxGeometry x="420" y="205" width="140" height="70" as="geometry" />
        </mxCell>
        <mxCell id="E3kmAj0gttxFbAQWqcGt-30" value="" style="endArrow=none;html=1;rounded=0;exitX=0.067;exitY=0.242;exitDx=0;exitDy=0;exitPerimeter=0;" edge="1" parent="1" source="E3kmAj0gttxFbAQWqcGt-20" target="E3kmAj0gttxFbAQWqcGt-3">
          <mxGeometry width="50" height="50" relative="1" as="geometry">
            <mxPoint x="440" y="435" as="sourcePoint" />
            <mxPoint x="350" y="546" as="targetPoint" />
          </mxGeometry>
        </mxCell>
        <mxCell id="E3kmAj0gttxFbAQWqcGt-33" value="" style="endArrow=classic;html=1;rounded=0;" edge="1" parent="1" source="E3kmAj0gttxFbAQWqcGt-3" target="E3kmAj0gttxFbAQWqcGt-2">
          <mxGeometry width="50" height="50" relative="1" as="geometry">
            <mxPoint x="340" y="380" as="sourcePoint" />
            <mxPoint x="390" y="330" as="targetPoint" />
          </mxGeometry>
        </mxCell>
        <mxCell id="E3kmAj0gttxFbAQWqcGt-34" value="" style="endArrow=none;html=1;rounded=0;" edge="1" parent="1" source="E3kmAj0gttxFbAQWqcGt-21" target="E3kmAj0gttxFbAQWqcGt-3">
          <mxGeometry width="50" height="50" relative="1" as="geometry">
            <mxPoint x="460" y="491" as="sourcePoint" />
            <mxPoint x="350" y="240" as="targetPoint" />
          </mxGeometry>
        </mxCell>
        <mxCell id="E3kmAj0gttxFbAQWqcGt-35" value="" style="endArrow=none;html=1;rounded=0;entryX=1;entryY=0.5;entryDx=0;entryDy=0;" edge="1" parent="1" source="E3kmAj0gttxFbAQWqcGt-1" target="E3kmAj0gttxFbAQWqcGt-21">
          <mxGeometry width="50" height="50" relative="1" as="geometry">
            <mxPoint x="480" y="380" as="sourcePoint" />
            <mxPoint x="530" y="330" as="targetPoint" />
          </mxGeometry>
        </mxCell>
        <mxCell id="E3kmAj0gttxFbAQWqcGt-36" value="" style="endArrow=none;html=1;rounded=0;entryX=1;entryY=0.5;entryDx=0;entryDy=0;" edge="1" parent="1" source="E3kmAj0gttxFbAQWqcGt-1" target="E3kmAj0gttxFbAQWqcGt-20">
          <mxGeometry width="50" height="50" relative="1" as="geometry">
            <mxPoint x="660" y="344" as="sourcePoint" />
            <mxPoint x="570" y="250" as="targetPoint" />
          </mxGeometry>
        </mxCell>
        <mxCell id="E3kmAj0gttxFbAQWqcGt-37" value="&amp;lt;&amp;lt;extend&amp;gt;&amp;gt;" style="html=1;verticalAlign=bottom;labelBackgroundColor=none;endArrow=open;endFill=0;dashed=1;rounded=0;entryX=0.5;entryY=1;entryDx=0;entryDy=0;exitX=0.5;exitY=0;exitDx=0;exitDy=0;" edge="1" parent="1" source="E3kmAj0gttxFbAQWqcGt-21" target="E3kmAj0gttxFbAQWqcGt-16">
          <mxGeometry x="-0.0909" y="30" width="160" relative="1" as="geometry">
            <mxPoint x="420" y="350" as="sourcePoint" />
            <mxPoint x="580" y="350" as="targetPoint" />
            <mxPoint as="offset" />
          </mxGeometry>
        </mxCell>
        <mxCell id="E3kmAj0gttxFbAQWqcGt-38" value="&amp;lt;&amp;lt;include&amp;gt;&amp;gt;" style="html=1;verticalAlign=bottom;labelBackgroundColor=none;endArrow=open;endFill=0;dashed=1;rounded=0;exitX=0.5;exitY=0;exitDx=0;exitDy=0;" edge="1" parent="1" source="E3kmAj0gttxFbAQWqcGt-10" target="E3kmAj0gttxFbAQWqcGt-20">
          <mxGeometry x="-0.3333" y="-20" width="160" relative="1" as="geometry">
            <mxPoint x="420" y="350" as="sourcePoint" />
            <mxPoint x="580" y="350" as="targetPoint" />
            <mxPoint as="offset" />
          </mxGeometry>
        </mxCell>
        <mxCell id="E3kmAj0gttxFbAQWqcGt-39" value="" style="endArrow=none;html=1;rounded=0;entryX=0;entryY=0.5;entryDx=0;entryDy=0;" edge="1" parent="1" source="E3kmAj0gttxFbAQWqcGt-2" target="E3kmAj0gttxFbAQWqcGt-10">
          <mxGeometry width="50" height="50" relative="1" as="geometry">
            <mxPoint x="480" y="380" as="sourcePoint" />
            <mxPoint x="530" y="330" as="targetPoint" />
          </mxGeometry>
        </mxCell>
        <mxCell id="E3kmAj0gttxFbAQWqcGt-40" value="" style="endArrow=none;html=1;rounded=0;entryX=0;entryY=0.5;entryDx=0;entryDy=0;" edge="1" parent="1" source="E3kmAj0gttxFbAQWqcGt-2" target="E3kmAj0gttxFbAQWqcGt-16">
          <mxGeometry width="50" height="50" relative="1" as="geometry">
            <mxPoint x="330" y="426" as="sourcePoint" />
            <mxPoint x="430" y="465" as="targetPoint" />
          </mxGeometry>
        </mxCell>
        <mxCell id="E3kmAj0gttxFbAQWqcGt-41" value="Посетитель" style="shape=umlActor;verticalLabelPosition=bottom;verticalAlign=top;html=1;" vertex="1" parent="1">
          <mxGeometry x="205" y="680" width="30" height="60" as="geometry" />
        </mxCell>
        <mxCell id="E3kmAj0gttxFbAQWqcGt-42" value="Кассир" style="shape=umlActor;verticalLabelPosition=bottom;verticalAlign=top;html=1;" vertex="1" parent="1">
          <mxGeometry x="520" y="680" width="30" height="60" as="geometry" />
        </mxCell>
        <mxCell id="E3kmAj0gttxFbAQWqcGt-43" value="Бариста" style="shape=umlActor;verticalLabelPosition=bottom;verticalAlign=top;html=1;" vertex="1" parent="1">
          <mxGeometry x="520" y="805" width="30" height="60" as="geometry" />
        </mxCell>
        <mxCell id="E3kmAj0gttxFbAQWqcGt-44" value="Сделать заказ" style="ellipse;whiteSpace=wrap;html=1;" vertex="1" parent="1">
          <mxGeometry x="150" y="800" width="140" height="70" as="geometry" />
        </mxCell>
        <mxCell id="E3kmAj0gttxFbAQWqcGt-45" value="" style="endArrow=none;html=1;rounded=0;" edge="1" parent="1" source="E3kmAj0gttxFbAQWqcGt-44" target="E3kmAj0gttxFbAQWqcGt-41">
          <mxGeometry width="50" height="50" relative="1" as="geometry">
            <mxPoint x="475" y="960" as="sourcePoint" />
            <mxPoint x="525" y="910" as="targetPoint" />
          </mxGeometry>
        </mxCell>
        <mxCell id="E3kmAj0gttxFbAQWqcGt-46" value="Добавить дополнительные&lt;div&gt;товары&lt;/div&gt;" style="ellipse;whiteSpace=wrap;html=1;" vertex="1" parent="1">
          <mxGeometry x="20" y="920" width="145" height="70" as="geometry" />
        </mxCell>
        <mxCell id="E3kmAj0gttxFbAQWqcGt-47" value="&amp;lt;&amp;lt;extend&amp;gt;&amp;gt;" style="html=1;verticalAlign=bottom;labelBackgroundColor=none;endArrow=open;endFill=0;dashed=1;rounded=0;entryX=0.517;entryY=0;entryDx=0;entryDy=0;exitX=0;exitY=1;exitDx=0;exitDy=0;entryPerimeter=0;" edge="1" parent="1" source="E3kmAj0gttxFbAQWqcGt-44" target="E3kmAj0gttxFbAQWqcGt-46">
          <mxGeometry x="0.1952" y="-17" width="160" relative="1" as="geometry">
            <mxPoint x="425" y="930" as="sourcePoint" />
            <mxPoint x="585" y="930" as="targetPoint" />
            <mxPoint as="offset" />
          </mxGeometry>
        </mxCell>
        <mxCell id="E3kmAj0gttxFbAQWqcGt-48" value="&amp;lt;&amp;lt;include&amp;gt;&amp;gt;" style="html=1;verticalAlign=bottom;labelBackgroundColor=none;endArrow=open;endFill=0;dashed=1;rounded=0;exitX=0.5;exitY=0;exitDx=0;exitDy=0;entryX=1;entryY=1;entryDx=0;entryDy=0;" edge="1" parent="1" source="E3kmAj0gttxFbAQWqcGt-49" target="E3kmAj0gttxFbAQWqcGt-44">
          <mxGeometry x="-0.4157" y="-16" width="160" relative="1" as="geometry">
            <mxPoint x="425" y="930" as="sourcePoint" />
            <mxPoint x="585" y="930" as="targetPoint" />
            <mxPoint x="1" as="offset" />
          </mxGeometry>
        </mxCell>
        <mxCell id="E3kmAj0gttxFbAQWqcGt-49" value="Выбрать время выдачи заказа" style="ellipse;whiteSpace=wrap;html=1;" vertex="1" parent="1">
          <mxGeometry x="270" y="920" width="140" height="70" as="geometry" />
        </mxCell>
        <mxCell id="E3kmAj0gttxFbAQWqcGt-50" value="Выполнить онлайн заказ" style="ellipse;whiteSpace=wrap;html=1;" vertex="1" parent="1">
          <mxGeometry x="300" y="675" width="160" height="70" as="geometry" />
        </mxCell>
        <mxCell id="E3kmAj0gttxFbAQWqcGt-51" value="" style="endArrow=none;html=1;rounded=0;exitX=1;exitY=0.5;exitDx=0;exitDy=0;" edge="1" parent="1" source="E3kmAj0gttxFbAQWqcGt-50" target="E3kmAj0gttxFbAQWqcGt-42">
          <mxGeometry width="50" height="50" relative="1" as="geometry">
            <mxPoint x="240" y="960" as="sourcePoint" />
            <mxPoint x="290" y="910" as="targetPoint" />
          </mxGeometry>
        </mxCell>
        <mxCell id="E3kmAj0gttxFbAQWqcGt-52" value="" style="endArrow=none;html=1;rounded=0;exitX=0.5;exitY=1;exitDx=0;exitDy=0;" edge="1" parent="1" source="E3kmAj0gttxFbAQWqcGt-50" target="E3kmAj0gttxFbAQWqcGt-43">
          <mxGeometry width="50" height="50" relative="1" as="geometry">
            <mxPoint x="470" y="720" as="sourcePoint" />
            <mxPoint x="530" y="720" as="targetPoint" />
          </mxGeometry>
        </mxCell>
      </root>
    </mxGraphModel>
  </diagram>
</mxfile>
